<svg xmlns="http://www.w3.org/2000/svg" viewBox="0 0 45 50" fill="none">
  <!-- Chair back (curved) -->
  <path d="M8 5 Q22.5 0 37 5 L35 18 Q22.5 15 10 18 Z" fill="#1F2937"/>
  <!-- Headrest -->
  <ellipse cx="22.5" cy="6" rx="10" ry="4" fill="#374151"/>
  <!-- Seat -->
  <ellipse cx="22.5" cy="30" rx="16" ry="12" fill="#374151"/>
  <!-- Armrests -->
  <rect x="2" y="20" width="6" height="15" rx="2" fill="#4B5563"/>
  <rect x="37" y="20" width="6" height="15" rx="2" fill="#4B5563"/>
  <!-- Base (star shape) -->
  <circle cx="22.5" cy="44" r="4" fill="#6B7280"/>
  <line x1="22.5" y1="44" x2="10" y2="48" stroke="#6B7280" stroke-width="3"/>
  <line x1="22.5" y1="44" x2="35" y2="48" stroke="#6B7280" stroke-width="3"/>
  <line x1="22.5" y1="44" x2="8" y2="40" stroke="#6B7280" stroke-width="3"/>
  <line x1="22.5" y1="44" x2="37" y2="40" stroke="#6B7280" stroke-width="3"/>
  <!-- Wheels -->
  <circle cx="10" cy="48" r="2" fill="#9CA3AF"/>
  <circle cx="35" cy="48" r="2" fill="#9CA3AF"/>
  <circle cx="8" cy="40" r="2" fill="#9CA3AF"/>
  <circle cx="37" cy="40" r="2" fill="#9CA3AF"/>
</svg>

