<svg xmlns="http://www.w3.org/2000/svg" viewBox="0 0 70 70" fill="none">
  <!-- Frame -->
  <rect x="4" y="4" width="62" height="62" rx="2" fill="#F5F5F4"/>
  <!-- Grid compartments 4x4 -->
  <!-- Row 1 -->
  <rect x="7" y="7" width="13" height="13" rx="1" fill="#E7E5E4"/>
  <rect x="22" y="7" width="13" height="13" rx="1" fill="#E7E5E4"/>
  <rect x="37" y="7" width="13" height="13" rx="1" fill="#E7E5E4"/>
  <rect x="52" y="7" width="13" height="13" rx="1" fill="#E7E5E4"/>
  <!-- Row 2 -->
  <rect x="7" y="22" width="13" height="13" rx="1" fill="#E7E5E4"/>
  <rect x="22" y="22" width="13" height="13" rx="1" fill="#E7E5E4"/>
  <rect x="37" y="22" width="13" height="13" rx="1" fill="#E7E5E4"/>
  <rect x="52" y="22" width="13" height="13" rx="1" fill="#E7E5E4"/>
  <!-- Row 3 -->
  <rect x="7" y="37" width="13" height="13" rx="1" fill="#E7E5E4"/>
  <rect x="22" y="37" width="13" height="13" rx="1" fill="#E7E5E4"/>
  <rect x="37" y="37" width="13" height="13" rx="1" fill="#E7E5E4"/>
  <rect x="52" y="37" width="13" height="13" rx="1" fill="#E7E5E4"/>
  <!-- Row 4 -->
  <rect x="7" y="52" width="13" height="13" rx="1" fill="#E7E5E4"/>
  <rect x="22" y="52" width="13" height="13" rx="1" fill="#E7E5E4"/>
  <rect x="37" y="52" width="13" height="13" rx="1" fill="#E7E5E4"/>
  <rect x="52" y="52" width="13" height="13" rx="1" fill="#E7E5E4"/>
  <!-- Some items in compartments -->
  <rect x="9" y="10" width="4" height="8" rx="1" fill="#3B82F6"/>
  <rect x="14" y="10" width="3" height="8" rx="1" fill="#EF4444"/>
  <circle cx="28" cy="13" r="4" fill="#4ADE80"/>
  <rect x="39" y="24" width="9" height="9" rx="1" fill="#F59E0B" opacity="0.7"/>
</svg>

