<svg xmlns="http://www.w3.org/2000/svg" viewBox="0 0 50 35" fill="none">
  <!-- Folded throw/blanket -->
  <path d="M5 10 Q10 5 25 8 Q40 5 45 10 L45 30 Q40 33 25 30 Q10 33 5 30 Z" fill="#6366F1"/>
  <!-- Fold lines -->
  <path d="M8 15 Q25 18 42 15" stroke="#818CF8" stroke-width="1.5" fill="none"/>
  <path d="M8 22 Q25 25 42 22" stroke="#818CF8" stroke-width="1.5" fill="none"/>
  <!-- Fringe at ends -->
  <path d="M5 10 L3 7 M8 9 L6 5 M12 8 L11 4 M16 8 L16 4" stroke="#4F46E5" stroke-width="1" stroke-linecap="round"/>
  <path d="M45 10 L47 7 M42 9 L44 5 M38 8 L39 4 M34 8 L34 4" stroke="#4F46E5" stroke-width="1" stroke-linecap="round"/>
  <!-- Texture pattern -->
  <circle cx="20" cy="18" r="1" fill="#A5B4FC"/>
  <circle cx="30" cy="20" r="1" fill="#A5B4FC"/>
  <circle cx="25" cy="25" r="1" fill="#A5B4FC"/>
</svg>

